<svg id="Capa_1" style="color: white; fill: white;" enable-background="new 0 0 512 512" height="512" viewBox="0 0 512 512" width="512"
     xmlns="http://www.w3.org/2000/svg"><g><g><g><path d="m497 90h-30c-8.284 0-15-6.716-15-15s6.716-15 15-15h30c8.284 0 15 6.716 15 15s-6.716 15-15 15z"/><path d="m482 150h-15c-8.284 0-15-6.716-15-15s6.716-15 15-15h15c8.284 0 15 6.716 15 15s-6.716 15-15 15z"/><path d="m497 210h-30c-8.284 0-15-6.716-15-15s6.716-15 15-15h30c8.284 0 15 6.716 15 15s-6.716 15-15 15z"/><path d="m482 270h-15c-8.284 0-15-6.716-15-15s6.716-15 15-15h15c8.284 0 15 6.716 15 15s-6.716 15-15 15z"/><path d="m497 330h-30c-8.284 0-15-6.716-15-15s6.716-15 15-15h30c8.284 0 15 6.716 15 15s-6.716 15-15 15z"/></g><g><g><path d="m197.975 70.905c-20.066-34.591-39.803-63.228-40.633-64.43-2.8-4.055-7.414-6.475-12.342-6.475s-9.542 2.42-12.342 6.475c-.556.805-9.598 13.927-21.536 32.893.929 1.56 1.865 3.151 2.802 4.767 22.978 39.61 26.076 58.051 26.076 70.865 0 46.869-38.131 85-85 85-.559 0-1.11-.031-1.667-.042 10.988 40.314 47.918 70.042 91.667 70.042 52.383 0 95-42.617 95-95 0-21.297-13.747-55.347-42.025-104.095z"/></g><path d="m55 170c-30.327 0-55-24.673-55-55 0-7.66 2.283-21.779 22.025-55.811 10.18-17.548 20.211-32.103 20.633-32.714 2.8-4.055 7.414-6.475 12.342-6.475s9.542 2.42 12.342 6.475c.422.611 10.453 15.166 20.633 32.714 19.742 34.032 22.025 48.151 22.025 55.811 0 30.327-24.673 55-55 55z"/></g></g><g><circle cx="347" cy="407" r="15"/><path d="m412 324.535v-259.535c0-35.898-29.101-65-65-65-35.899 0-65 29.101-65 65v259.536c-24.362 19.229-40 49.02-40 82.465 0 57.99 47.01 105 105 105s105-47.01 105-105c0-33.446-15.638-63.237-40-82.466zm-65 127.465c-24.813 0-45-20.187-45-45 0-19.555 12.541-36.228 30-42.42v-109.58c0-8.284 6.716-15 15-15s15 6.716 15 15v109.58c17.459 6.192 30 22.865 30 42.42 0 24.813-20.187 45-45 45z"/></g></g></svg>
