<svg id="Capa_1" style="color: white; fill: white;" enable-background="new 0 0 511.999 511.999" height="512" viewBox="0 0 511.999 511.999" width="512" xmlns="http://www.w3.org/2000/svg"><g><path d="m271.726 314.727c-12.514 0-24.279-4.874-33.129-13.723-22.346-22.348-22.346-58.708 0-81.055 27.447-27.446 72.107-27.446 99.551 0 16.384 16.383 25.406 38.165 25.406 61.335s-9.022 44.952-25.406 61.335c-20.242 20.243-47.157 31.392-75.785 31.392-25.513 0-49.272-8.613-68.71-24.909-3.174-2.662-7.905-2.245-10.566.929s-2.245 7.904.929 10.565c47.259 39.622 118.966 38.403 164.74-7.369 19.216-19.217 29.799-44.767 29.799-71.942s-10.583-52.726-29.799-71.942c-33.293-33.292-87.469-33.294-120.765.001-28.194 28.194-28.194 74.072 0 102.268 11.684 11.683 27.216 18.116 43.736 18.116 16.521 0 32.054-6.434 43.736-18.116 3.777-3.778 5.857-8.801 5.857-14.143s-2.08-10.364-5.858-14.143c-7.8-7.797-20.486-7.795-28.284 0-4.127 4.128-9.615 6.401-15.451 6.401s-11.324-2.273-15.452-6.401c-12.599-12.599-12.599-33.1 0-45.699 8.557-8.558 19.955-13.271 32.097-13.271 12.141 0 23.541 4.713 32.099 13.271 24.073 24.072 24.073 63.242 0 87.314-15.521 15.521-36.157 24.069-58.107 24.069s-42.587-8.548-58.108-24.069c-20.311-20.311-31.497-47.361-31.497-76.17 0-28.808 11.186-55.859 31.497-76.17 7.798-7.799 7.798-20.486 0-28.284-3.777-3.778-8.8-5.858-14.143-5.858s-10.366 2.08-14.142 5.857c-24.589 24.59-39.744 57.236-42.673 91.925-2.893 34.269 6.228 68.595 25.682 96.654 2.359 3.402 7.032 4.253 10.437 1.89 3.404-2.359 4.25-7.032 1.89-10.437-36.573-52.75-30.151-124.004 15.271-169.426 1.952-1.952 5.116-1.955 7.071.001 1.949 1.949 1.949 5.121 0 7.07-47.849 47.85-47.849 125.705 0 173.555 18.354 18.354 42.757 28.462 68.714 28.462s50.36-10.108 68.715-28.462c14.474-14.474 22.444-33.745 22.444-54.265s-7.971-39.791-22.445-54.265c-11.392-11.391-26.558-17.664-42.706-17.664-16.147 0-31.313 6.273-42.703 17.664-18.448 18.448-18.448 48.465 0 66.913 6.961 6.96 16.215 10.794 26.058 10.794s19.098-3.834 26.059-10.794c1.949-1.949 5.121-1.949 7.07 0 1.953 1.951 1.956 5.116 0 7.07-8.85 8.852-20.615 13.726-33.129 13.726z"/><path d="m412.688 214.61c3.952-1.241 6.149-5.45 4.908-9.402-21.274-67.747-84.778-118.555-161.596-118.555-93.378 0-169.347 75.969-169.347 169.347 0 93.379 75.969 169.348 169.347 169.348s169.347-75.969 169.347-169.348c0-4.488-.177-9.012-.526-13.443-.326-4.13-3.938-7.222-8.065-6.888-4.13.325-7.213 3.937-6.888 8.065.318 4.042.479 8.169.479 12.266 0 85.107-69.239 154.348-154.347 154.348s-154.347-69.241-154.347-154.348 69.24-154.347 154.347-154.347c67.802 0 126.99 43.422 147.285 108.049 1.241 3.952 5.448 6.152 9.403 4.908z"/><path d="m441.412 179.201v-93.615c0-8.27-6.729-14.998-14.998-14.998l-93.613.001-66.196-66.196c-5.849-5.848-15.362-5.848-21.21 0l-66.194 66.195h-34.53c-4.142 0-7.5 3.357-7.5 7.5s3.358 7.5 7.5 7.5h34.53c4.004 0 7.77-1.56 10.605-4.392l66.193-66.196 66.197 66.197c2.833 2.831 6.599 4.391 10.604 4.391l93.613-.002v93.615c0 4.006 1.561 7.772 4.393 10.605l66.194 66.192-66.193 66.195c-2.834 2.832-4.395 6.599-4.395 10.605l.002 93.613h-93.615c-4.006 0-7.772 1.561-10.605 4.393l-66.193 66.196-66.196-66.195c-2.833-2.832-6.599-4.393-10.605-4.393l-93.613.002v-93.615c0-4.007-1.561-7.772-4.393-10.604l-66.194-66.193 66.197-66.196c2.832-2.833 4.392-6.6 4.392-10.604l-.002-93.613h24.084c4.142 0 7.5-3.357 7.5-7.5s-3.358-7.5-7.5-7.5h-24.085c-8.27 0-14.998 6.729-14.998 14.998l.001 93.613-66.195 66.195c-2.833 2.833-4.394 6.598-4.394 10.605s1.561 7.772 4.393 10.605l66.195 66.193v93.615c0 8.27 6.728 14.998 14.998 14.998h93.613l66.196 66.195c5.846 5.846 15.361 5.847 21.21 0l66.193-66.195h93.615c8.27 0 14.998-6.729 14.998-14.998v-93.612l66.195-66.196c2.832-2.833 4.392-6.6 4.392-10.605s-1.56-7.772-4.392-10.605z"/></g></svg>
