<svg id="Capa_1" style="color: white; fill: white;" enable-background="new 0 0 512 512" height="512" viewBox="0 0 512 512" width="512" xmlns="http://www.w3.org/2000/svg"><g><path d="m497 482h-214.787l26.877-26.877c12.955-12.955 23.615-27.515 31.875-43.123h35.035c8.284 0 15-6.716 15-15s-6.716-15-15-15h-22.503c12.324-39.201 11.017-82.292-5.367-122.079-1.075-2.61-1.974-5.256-2.738-7.921h20.608c8.284 0 15-6.716 15-15s-6.716-15-15-15h-22.946c2.392-19.304 12.166-37.45 27.97-50h104.976c8.284 0 15-6.716 15-15s-6.716-15-15-15h-70.177c22.448-26.101 35.177-59.628 35.177-95v-2c0-10.682-7.599-19.269-22.584-25.521-9.579-3.997-22.903-7.518-39.601-10.465-32.943-5.812-76.559-9.014-122.815-9.014s-89.872 3.202-122.815 9.015c-16.697 2.947-30.021 6.468-39.601 10.465-14.985 6.251-22.584 14.838-22.584 25.52v77.016c0 6.708.425 13.38 1.238 19.984h-26.238c-8.284 0-15 6.716-15 15s6.716 15 15 15h32.804c8.489 26.626 23.665 51.001 44.347 70.39 12.903 12.096 24.311 25.395 34.156 39.61h-61.307c-8.284 0-15 6.716-15 15s6.716 15 15 15h79.097c25.968 51.807 33.402 112.01 19.182 170h-179.279c-8.284 0-15 6.716-15 15s6.716 15 15 15h482c8.284 0 15-6.716 15-15s-6.716-15-15-15zm-348.235-445.12c29.852-4.437 67.935-6.88 107.235-6.88s77.383 2.443 107.235 6.88c18.43 2.738 30.245 5.684 37.695 8.12-7.45 2.437-19.266 5.382-37.695 8.12-29.852 4.437-67.935 6.88-107.235 6.88s-77.383-2.443-107.235-6.88c-18.43-2.738-30.245-5.684-37.695-8.12 7.45-2.437 19.265-5.382 37.695-8.12zm76.304 445.12c12.572-57.824 6.133-117.258-16.866-170h17.797c8.284 0 15-6.716 15-15s-6.716-15-15-15h-33.096c-13.223-22.439-29.709-43.192-49.236-61.498-14.537-13.628-25.746-30.27-33.021-48.502h95.353c8.284 0 15-6.716 15-15s-6.716-15-15-15h-103.49c-.994-6.584-1.51-13.263-1.51-19.984v-48.745c8.652 2.877 19.431 5.464 32.185 7.715 32.943 5.812 76.559 9.014 122.815 9.014s89.872-3.202 122.815-9.015c11.199-1.977 20.873-4.213 28.925-6.676-6.578 27.203-22.87 51.34-46.348 67.691h-55.392c-8.284 0-15 6.716-15 15s6.716 15 15 15h24.64c-10.056 14.91-16.147 32.165-17.735 50h-46.905c-8.284 0-15 6.716-15 15s6.716 15 15 15h48.55c1.308 6.53 3.23 13.007 5.839 19.343 14.91 36.208 14.81 75.696 1.305 110.657h-45.694c-8.284 0-15 6.716-15 15s6.716 15 15 15h29.992c-5.265 7.757-11.306 15.101-18.115 21.91l-48.09 48.09z"/></g></svg>
