<svg height="512pt" viewBox="0 0 512 512" width="512pt" xmlns="http://www.w3.org/2000/svg"><path d="m316 151h-30c-74.441406 0-135-61.558594-135-136 0-8.289062 6.710938-15 15-15h30c74.441406 0 135 61.558594 135 136 0 8.289062-6.710938 15-15 15zm0 0" fill="#a0deb0"/><path d="m391 15c0 8.402344-6.597656 15-15 15-24.902344 0-45 20.097656-45 45v61c0 8.398438-6.597656 15-15 15s-15-6.601562-15-15v-61c0-16.800781 5.398438-32.402344 15-44.699219 13.5-18.300781 35.398438-30.300781 60-30.300781 8.402344 0 15 6.597656 15 15zm0 0" fill="#895d3c"/><path d="m391 15c0 8.402344-6.597656 15-15 15-24.902344 0-45 20.097656-45 45v61c0 8.398438-6.597656 15-15 15v-120.699219c13.5-18.300781 35.398438-30.300781 60-30.300781 8.402344 0 15 6.597656 15 15zm0 0" fill="#714c2f"/><path d="m512 317c0 107.699219-88.300781 195-196 195s-195-87.300781-195-195 87.300781-196 195-196 196 88.300781 196 196zm0 0" fill="#ff9100"/><path d="m512 317c0 107.699219-88.300781 195-196 195v-391c107.699219 0 196 88.300781 196 196zm0 0" fill="#ff641a"/><path d="m199.605469 284.144531c-7.632813-3.238281-11.191407-12.042969-7.96875-19.660156 21.222656-50.113281 70.046875-83.484375 124.363281-83.484375 8.289062 0 15 6.710938 15 15s-6.710938 15-15 15c-42.246094 0-80.214844 26.195312-96.738281 65.1875-3.265625 7.671875-12.089844 11.15625-19.65625 7.957031zm0 0" fill="#ff641a"/><path d="m391 317c0 107.398438-87.597656 195-195 195s-196-87.601562-196-195c0-5.101562.300781-10.199219.601562-15.300781.300782-4.800781 3-9.300781 7.5-11.699219 4.199219-2.699219 9.300782-2.699219 13.796876-.601562 34.203124 15.902343 70.902343 26.101562 106.902343 32.402343l-1.203125 22.796875 33.300782-18.597656c6.601562.601562 13.5.898438 20.101562 1.199219l15 34.800781 15-34.800781c6.597656-.300781 13.5-.597657 20.097656-1.199219l33.300782 18.601562-1.199219-22.800781c36-6.300781 71.699219-16.5 105.902343-32.402343 4.496094-2.097657 9.597657-2.097657 13.796876.601562 4.5 2.402344 7.199218 6.898438 7.5 11.699219.300781 5.101562.601562 10.199219.601562 15.300781zm0 0" fill="#fdbf00"/><path d="m391 317c0 107.398438-87.597656 195-195 195v-150l15-34.800781c6.597656-.300781 13.5-.597657 20.097656-1.199219l33.300782 18.601562-1.199219-22.800781c36-6.300781 71.699219-16.5 105.902343-32.402343 4.496094-2.097657 9.597657-2.097657 13.796876.601562 4.5 2.402344 7.199218 6.898438 7.5 11.699219.300781 5.101562.601562 10.199219.601562 15.300781zm0 0" fill="#ff9100"/><path d="m97.679688 404.480469c7.015624 4.648437 16.28125 2.632812 20.800781-4.160157l42.476562-74.335937c-10.726562-.929687-21.375-2.492187-32.023437-4.277344l-35.414063 61.972657c-4.597656 6.898437-2.738281 16.203124 4.160157 20.800781zm0 0" fill="#ff9100"/><path d="m294.320312 404.480469c6.898438-4.601563 8.757813-13.902344 4.160157-20.800781l-35.414063-61.96875c-10.648437 1.78125-21.296875 3.34375-32.023437 4.273437l42.476562 74.335937c4.519531 6.792969 13.78125 8.8125 20.800781 4.160157zm0 0" fill="#ff641a"/><path d="m211 327.199219v79.800781c0 8.398438-6.597656 15-15 15s-15-6.601562-15-15v-79.800781c4.800781 0 9.902344.300781 15 .300781s10.199219-.300781 15-.300781zm0 0" fill="#ff9100"/><path d="m211 327.199219v79.800781c0 8.398438-6.597656 15-15 15v-94.5c5.097656 0 10.199219-.300781 15-.300781zm0 0" fill="#ff641a"/></svg>